HIERARCHY
ROOT root
{
	OFFSET	0	13.1	24.9
	CHANNELS 6  Xposition Yposition Zposition Xrotation Yrotation Zrotation
	JOINT spine_1
	{
		OFFSET	0	9.99999	0
		CHANNELS 3  Xrotation Yrotation Zrotation
		JOINT spine_2
		{
			OFFSET	0	112	-10
			CHANNELS 3  Xrotation Yrotation Zrotation
			JOINT spine_3
			{
				OFFSET	0	206.5	19.3
				CHANNELS 3  Xrotation Yrotation Zrotation
				JOINT spine_4
				{
					OFFSET	0	110.4	14.6
					CHANNELS 3  Xrotation Yrotation Zrotation
					JOINT neck_1
					{
						OFFSET	0	71.8	-50.3
						CHANNELS 3  Xrotation Yrotation Zrotation
						JOINT neck_2
						{
							OFFSET	0	86.2	-25.8
							CHANNELS 3  Xrotation Yrotation Zrotation
							JOINT head_ee
							{
								OFFSET	0	179.8	-8.7
								CHANNELS 3  Xrotation Yrotation Zrotation
								End Site
								{
									OFFSET	1	0	0
								}
							}
						}
					}
					JOINT left_clavicle
					{
						OFFSET	-43.2	22.4	-70.8
						CHANNELS 3  Xrotation Yrotation Zrotation
						JOINT left_shoulder
						{
							OFFSET	-93.9	-5.79999	48.7
							CHANNELS 3  Xrotation Yrotation Zrotation
							JOINT left_elbow
							{
								OFFSET	-291.4	-30.8	15.2
								CHANNELS 3  Xrotation Yrotation Zrotation
								JOINT left_lowarm_twist
								{
									OFFSET	-110.7	-3.89999	13.6
									CHANNELS 3  Xrotation Yrotation Zrotation
									JOINT left_hand
									{
										OFFSET	-110.7	-3.89999	13.6
										CHANNELS 3  Xrotation Yrotation Zrotation
										JOINT left_ee
										{
											OFFSET	-80.8	-5.10001	12.1
											CHANNELS 3  Xrotation Yrotation Zrotation
											End Site
											{
												OFFSET	1	0	0
											}
										}
									}
								}
							}
						}
					}
					JOINT right_clavicle
					{
						OFFSET	43.2	22.4	-70.8
						CHANNELS 3  Xrotation Yrotation Zrotation
						JOINT right_shoulder
						{
							OFFSET	93.9	-5.79999	48.7
							CHANNELS 3  Xrotation Yrotation Zrotation
							JOINT right_elbow
							{
								OFFSET	291.4	-30.8	15.2
								CHANNELS 3  Xrotation Yrotation Zrotation
								JOINT right_lowarm_twist
								{
									OFFSET	110.7	-3.89999	13.6
									CHANNELS 3  Xrotation Yrotation Zrotation
									JOINT right_hand
									{
										OFFSET	110.7	-3.89999	13.6
										CHANNELS 3  Xrotation Yrotation Zrotation
										JOINT right_ee
										{
											OFFSET	80.8	-5.10001	12.1
											CHANNELS 3  Xrotation Yrotation Zrotation
											End Site
											{
												OFFSET	1	0	0
											}
										}
									}
								}
							}
						}
					}
				}
			}
		}
	}
	JOINT left_hip
	{
		OFFSET	-82.8	-127.5	0.300001
		CHANNELS 3  Xrotation Yrotation Zrotation
		JOINT left_knee
		{
			OFFSET	-28.2	-396.7	2.2
			CHANNELS 3  Xrotation Yrotation Zrotation
			JOINT left_ankle
			{
				OFFSET	-11.7	-411.3	35.4
				CHANNELS 3  Xrotation Yrotation Zrotation
				JOINT left_toes
				{
					OFFSET	0	-60	-88.6
					CHANNELS 3  Xrotation Yrotation Zrotation
					JOINT left_foot_ee
					{
						OFFSET	-22.5	-16.5	-42.2
						CHANNELS 3  Xrotation Yrotation Zrotation
						End Site
						{
							OFFSET	1	0	0
						}
					}
				}
			}
		}
	}
	JOINT right_hip
	{
		OFFSET	82.8	-127.5	0.300001
		CHANNELS 3  Xrotation Yrotation Zrotation
		JOINT right_knee
		{
			OFFSET	28.2	-396.7	2.2
			CHANNELS 3  Xrotation Yrotation Zrotation
			JOINT right_ankle
			{
				OFFSET	11.7	-411.3	35.4
				CHANNELS 3  Xrotation Yrotation Zrotation
				JOINT right_toes
				{
					OFFSET	0	-60	-88.6
					CHANNELS 3  Xrotation Yrotation Zrotation
					JOINT right_foot_ee
					{
						OFFSET	22.5	-16.5	-42.2
						CHANNELS 3  Xrotation Yrotation Zrotation
						End Site
						{
							OFFSET	1	0	0
						}
					}
				}
			}
		}
	}
}
MOTION
Frames: 11
Frame Time: 0.02
3177.02 653.055 -1669.29 14.2450539601 79.1680140915 -15.2512047549 -2.10504 0.145241 0.621144 -2.10483 0.105422 0.629127 -2.10341 -0.0525288 0.635732 -2.10398 0.0485304 0.63605 -8.82294 8.49812 2.0875 -8.85483 14.4793 4.02026 -0.0 0.0 -0.0 -0.0177987 2.80131 0.300049 -18.8637 -28.6651 76.0983 0.252796 -7.13804 0.0157674 39.2309 -0.309865 -4.90533 -0.99072 28.0274 5.55841 -0.0 0.0 -0.0 10.0121 19.6917 -19.4523 9.58348 27.3102 -42.5006 2.82411 54.4324 -1.45262 2.96975 -0.0951278 0.367347 1.1666 18.1351 -0.0697925 0.0 0.0 0.0 30.7162 17.799 -3.50911 -0.981284 0.0391597 0.145497 -19.2846 -7.25288 3.01467 21.6053 -0.0 -0.0 -0.0 0.0 -0.0 -22.1547 27.5522 0.507822 -9.06898 -0.265829 -1.36497 25.7125 1.3567 3.44572 -31.1468 0.0 0.0 0.0 0.0 0.0 
3101.34897651 654.337 -1670.25549904 15.9126941511 80.1487125196 -16.1640687152 -1.65321 0.337025 0.651527 -1.65302 0.294885 0.671651 -1.64925 0.126404 0.722559 -1.6499 0.238929 0.69353 -4.86603 10.1612 3.58334 -4.78972 15.9893 5.3856 -0.0 0.0 -0.0 0.283782 0.496013 0.603583 -18.0219 -29.4217 74.355 0.258542 -7.29854 0.0164893 40.9247 -0.39823 -5.10312 -0.935811 29.6141 6.50595 -0.0 0.0 -0.0 10.0283 19.9319 -19.4714 2.65336 25.2904 -42.7524 2.27898 48.4591 -1.02573 6.35568 -0.180182 0.791444 1.59974 21.5067 -1.41922 0.0 0.0 0.0 29.4169 16.0119 -2.12341 -7.66883 0.238954 1.1518 -21.176 -9.82731 3.35838 19.9059 -0.0 -0.0 -0.0 0.0 -0.0 -24.3543 24.7376 -0.342369 -10.3462 -0.285793 -1.55994 19.1059 -1.07799 2.63421 -32.9725 0.0 0.0 0.0 0.0 0.0 
3101.3448567 654.337 -1669.84558076 16.4180974325 80.4468124847 -16.6768038992 -1.65321 0.337025 0.651527 -1.65302 0.294885 0.671651 -1.64925 0.126404 0.722559 -1.6499 0.238929 0.69353 -4.86603 10.1612 3.58334 -4.78972 15.9893 5.3856 -0.0 0.0 -0.0 0.283782 0.496013 0.603583 -18.0219 -29.4217 74.355 0.258542 -7.29854 0.0164893 40.9247 -0.39823 -5.10312 -0.935811 29.6141 6.50595 -0.0 0.0 -0.0 10.0283 19.9319 -19.4714 2.65336 25.2904 -42.7524 2.27898 48.4591 -1.02573 6.35568 -0.180182 0.791444 1.59974 21.5067 -1.41922 0.0 0.0 0.0 29.4169 16.0119 -2.12341 -7.66883 0.238954 1.1518 -21.176 -9.82731 3.35838 19.9059 -0.0 -0.0 -0.0 0.0 -0.0 -24.3543 24.7376 -0.342369 -10.3462 -0.285793 -1.55994 19.1059 -1.07799 2.63421 -32.9725 0.0 0.0 0.0 0.0 0.0 
3074.59764857 653.982 -1670.77634696 11.9479195315 81.4957829451 -11.9567992377 -1.57953 0.214748 0.711261 -1.57926 0.169055 0.723484 -1.57681 -0.00722222 0.742937 -1.57756 0.110198 0.734754 -3.94013 10.4547 3.8098 -3.83694 16.21 5.56172 -0.0 0.0 -0.0 0.420527 -0.10535 0.798752 -17.684 -29.6056 73.7438 0.285236 -8.04269 0.0200525 41.3057 -0.418912 -5.14724 -0.899508 29.6387 6.71021 -0.0 0.0 -0.0 10.0995 20.063 -19.6215 0.56843 24.5038 -43.4938 2.15129 46.8153 -0.931376 7.12649 -0.196031 0.888632 1.7153 22.0991 -1.90623 0.0 0.0 0.0 28.925 15.5438 -2.49811 -8.7171 0.259565 1.31134 -21.4584 -10.1043 3.40882 19.4509 -0.0 -0.0 -0.0 0.0 -0.0 -24.9159 23.998 -0.663412 -10.8028 -0.291875 -1.62973 17.599 -1.5275 2.4412 -33.3802 0.0 0.0 0.0 0.0 0.0 
3027.43446367 665.992 -1668.80635038 12.6696961068 81.2182598592 -12.3670160864 -1.57266 -0.0844032 0.689202 -1.5724 -0.128087 0.682435 -1.57378 -0.286155 0.632647 -1.57429 -0.182652 0.669898 -2.70234 10.3327 3.21184 -2.57735 16.2508 4.79223 -0.0 0.0 -0.0 0.90827 -1.01122 1.6455 -16.547 -30.0387 72.4197 0.386942 -10.851 0.0367507 42.4422 -0.482349 -5.27806 -0.821611 27.3894 6.22402 -0.0 0.0 -0.0 9.98837 19.0294 -19.4448 -4.42711 23.2029 -46.2525 2.29987 48.7184 -1.04141 6.56246 -0.184562 0.817496 1.98666 22.3144 -3.58677 0.0 0.0 0.0 25.6505 15.4428 -2.15212 -11.7271 0.302482 1.77116 -22.1874 -9.57256 3.51382 20.6944 -0.0 -0.0 -0.0 0.0 -0.0 -23.081 23.6024 -2.29979 -12.1179 -0.306281 -1.831 13.5153 -0.64851 1.91075 -32.9867 0.0 0.0 0.0 0.0 0.0 
3003.43353286 677.816 -1671.09086967 15.0236866266 79.3979875238 -14.1534377923 -1.98601 -0.284642 0.697947 -1.9858 -0.328477 0.678421 -1.98968 -0.484101 0.577755 -1.98993 -0.386782 0.646956 -3.27234 9.94109 3.00045 -3.16851 15.7889 4.57853 -0.0 0.0 -0.0 1.08429 -0.458572 2.04308 -14.8306 -29.9069 71.0927 0.4672 -13.0311 0.0533596 43.362 -0.535584 -5.383 -0.812731 24.6231 5.14518 -0.0 0.0 -0.0 9.18962 17.3767 -17.7728 -7.15323 22.6098 -47.587 2.52361 51.3347 -1.21291 5.76808 -0.167222 0.717502 2.44068 22.019 -6.71502 0.0 0.0 0.0 23.7179 15.5647 -2.36399 -11.9581 0.304777 1.80653 -22.9747 -7.41723 3.59639 21.6081 -0.0 -0.0 -0.0 0.0 -0.0 -21.8958 23.82 -2.78461 -15.4772 -0.32208 -2.3461 10.7919 0.423372 1.54573 -32.3277 0.0 0.0 0.0 0.0 0.0 
3003.43734641 677.816 -1671.42707211 14.8715546846 79.2907707772 -13.9986365762 -1.98601 -0.284642 0.697947 -1.9858 -0.328477 0.678421 -1.98968 -0.484101 0.577755 -1.98993 -0.386782 0.646956 -3.27234 9.94109 3.00045 -3.16851 15.7889 4.57853 -0.0 0.0 -0.0 1.08429 -0.458572 2.04308 -14.8306 -29.9069 71.0927 0.4672 -13.0311 0.0533596 43.362 -0.535584 -5.383 -0.812731 24.6231 5.14518 -0.0 0.0 -0.0 9.18962 17.3767 -17.7728 -7.15323 22.6098 -47.587 2.52361 51.3347 -1.21291 5.76808 -0.167222 0.717502 2.44068 22.019 -6.71502 0.0 0.0 0.0 23.7179 15.5647 -2.36399 -11.9581 0.304777 1.80653 -22.9747 -7.41723 3.59639 21.6081 -0.0 -0.0 -0.0 0.0 -0.0 -21.8958 23.82 -2.78461 -15.4772 -0.32208 -2.3461 10.7919 0.423372 1.54573 -32.3277 0.0 0.0 0.0 0.0 0.0 
3003.44243539 677.816 -1671.80669806 14.7034129962 79.1696130618 -13.8274802131 -1.98601 -0.284642 0.697947 -1.9858 -0.328477 0.678421 -1.98968 -0.484101 0.577755 -1.98993 -0.386782 0.646956 -3.27234 9.94109 3.00045 -3.16851 15.7889 4.57853 -0.0 0.0 -0.0 1.08429 -0.458572 2.04308 -14.8306 -29.9069 71.0927 0.4672 -13.0311 0.0533596 43.362 -0.535584 -5.383 -0.812731 24.6231 5.14518 -0.0 0.0 -0.0 9.18962 17.3767 -17.7728 -7.15323 22.6098 -47.587 2.52361 51.3347 -1.21291 5.76808 -0.167222 0.717502 2.44068 22.019 -6.71502 0.0 0.0 0.0 23.7179 15.5647 -2.36399 -11.9581 0.304777 1.80653 -22.9747 -7.41723 3.59639 21.6081 -0.0 -0.0 -0.0 0.0 -0.0 -21.8958 23.82 -2.78461 -15.4772 -0.32208 -2.3461 10.7919 0.423372 1.54573 -32.3277 0.0 0.0 0.0 0.0 0.0 
2963.90399534 688.594 -1675.36803268 18.5835879476 76.464279662 -16.8029060012 -2.26474 -0.213123 0.70707 -2.2645 -0.257682 0.692077 -2.26752 -0.421722 0.606238 -2.26789 -0.320688 0.66523 -4.98537 8.14642 0.192466 -4.93776 14.8375 1.60376 -0.0 0.0 -0.0 1.52195 1.36255 3.0569 -10.8643 -30.0063 68.261 0.593094 -16.373 0.0853242 43.5442 -0.546329 -5.40369 -1.49045 13.9833 -3.5714 -0.0 0.0 -0.0 7.91354 10.8962 -15.2978 -10.8035 24.512 -50.5498 2.80786 54.2759 -1.43941 3.0886 -0.0985369 0.382145 3.08903 16.3551 -13.8306 0.0 0.0 0.0 19.5947 15.6946 -2.89088 -13.868 0.318281 2.09925 -20.1954 -3.09691 3.1018 25.982 -0.0 -0.0 -0.0 0.0 -0.0 -14.8336 21.6408 -3.87579 -28.765 -0.089383 -4.36734 0.456584 5.04009 0.0686223 -30.8455 0.0 0.0 0.0 0.0 0.0 
2939.08111945 688.359 -1685.37543882 20.70624365 75.5721082447 -17.3550984992 -2.32706 -0.16344 0.437455 -2.32697 -0.190945 0.426168 -2.32838 -0.291325 0.364979 -2.32849 -0.230027 0.406408 -4.4313 7.75615 -0.733991 -4.36486 14.775 0.524191 -0.0 0.0 -0.0 1.62747 1.95544 3.3103 -9.3298 -30.118 66.9273 0.633905 -17.4333 0.0971909 43.59 -0.549042 -5.40888 -1.64886 8.59212 -7.09234 -0.0 0.0 -0.0 7.4707 8.15063 -14.4452 -12.9374 25.2537 -51.9248 2.69833 53.1895 -1.3511 1.42174 -0.0479195 0.175257 3.21885 13.136 -16.2791 0.0 0.0 0.0 18.1172 15.327 -4.3104 -14.962 0.321618 2.26706 -18.4209 -1.53341 2.81242 28.3685 -0.0 -0.0 -0.0 0.0 -0.0 -10.5527 19.4057 -2.64921 -38.8814 0.397139 -5.84106 -1.07318 9.09786 -0.165134 -30.0538 0.0 0.0 0.0 0.0 0.0 
2938.78448975 688.359 -1680.12945934 22.5968391315 76.7456020052 -19.3021206512 -2.32706 -0.16344 0.437455 -2.32697 -0.190945 0.426168 -2.32838 -0.291325 0.364979 -2.32849 -0.230027 0.406408 -4.4313 7.75615 -0.733991 -4.36486 14.775 0.524191 -0.0 0.0 -0.0 1.62747 1.95544 3.3103 -9.3298 -30.118 66.9273 0.633905 -17.4333 0.0971909 43.59 -0.549042 -5.40888 -1.64886 8.59212 -7.09234 -0.0 0.0 -0.0 7.4707 8.15063 -14.4452 -12.9374 25.2537 -51.9248 2.69833 53.1895 -1.3511 1.42174 -0.0479195 0.175257 3.21885 13.136 -16.2791 0.0 0.0 0.0 18.1172 15.327 -4.3104 -14.962 0.321618 2.26706 -18.4209 -1.53341 2.81242 28.3685 -0.0 -0.0 -0.0 0.0 -0.0 -10.5527 19.4057 -2.64921 -38.8814 0.397139 -5.84106 -1.07318 9.09786 -0.165134 -30.0538 0.0 0.0 0.0 0.0 0.0 
